<svg width="315" height="294" viewBox="0 0 315 294" fill="none" xmlns="http://www.w3.org/2000/svg">
<g clip-path="url(#clip0_1_2)">
<path d="M127.771 131.986C127.771 67.9806 153.342 31.6522 172.42 11H52.2728C36.8485 24.3345 3.8569 70.5468 6.00002 148.573C9.50002 276 54.0757 272.214 69.5 287.5C105.189 287.5 152.118 288.876 179.804 290.106C183.93 291.349 188.362 292 193.121 292C211.991 292 202.185 291.101 179.804 290.106C138.186 277.568 127.771 204.777 127.771 131.986Z" fill="white"/>
<path d="M172.42 11C153.342 31.6522 127.771 67.9806 127.771 131.986C127.771 211.993 140.354 292 193.121 292C235.335 292 134.038 287.5 69.5 287.5C54.0757 272.214 9.50002 276 6.00002 148.573C3.8569 70.5468 36.8485 24.3345 52.2728 11H172.42Z" stroke="black"/>
<path d="M160.5 128C160.5 62.4 129 25.1667 105.5 4H253.5C272.5 17.6667 310.5 65 310.5 145C310.5 225 272.5 269.833 253.5 285.5C206.789 285.5 137.119 287.744 98.1447 289.595C92.5741 291.171 86.5374 292 80 292C58.5535 292 70.7871 290.894 98.1447 289.595C147.961 275.506 160.5 201.753 160.5 128Z" fill="white"/>
<path d="M105.5 4C129 25.1667 160.5 62.4 160.5 128C160.5 210 145 292 80 292C28 292 174 285.5 253.5 285.5C272.5 269.833 310.5 225 310.5 145C310.5 65 272.5 17.6667 253.5 4H105.5Z" stroke="black"/>
<path d="M144.568 64.2619C142.231 57.8392 139.623 51.791 136.785 46.1535C137.056 46.6938 137.328 47.2332 137.593 47.7838C135.061 53.4954 132.755 59.6166 130.686 66.1041H114.521C117.139 57.9031 120.135 50.2732 123.476 43.333H135.329C121.123 16.5754 101.446 0 79.6928 0H78.4312V0.0024995C35.1144 0.0067091 0 65.7073 0 146.753C0 227.798 35.1144 293.498 78.4312 293.503L79.6928 293.503C101.446 293.503 121.124 276.927 135.33 250.17H123.476C120.103 243.154 117.075 235.416 114.445 227.108H130.61C132.69 233.702 135.017 239.93 137.592 245.727C140.119 240.556 142.454 235.053 144.568 229.243C136.013 205.735 131.011 177.34 131.011 146.757C131.011 116.17 136.013 87.7714 144.568 64.2619ZM36.1561 43.333H52.9355C48.9482 50.2732 45.3486 57.9031 42.2127 66.1041H25.4334C28.5586 57.9031 32.158 50.2732 36.1561 43.333ZM20.1745 81.9135H36.9644C34.2272 91.4616 32.0826 101.602 30.617 112.185H13.8269C15.2926 101.602 17.448 91.4616 20.1745 81.9135ZM11.4345 146.757C11.4345 140.399 11.6715 134.137 12.1242 127.995H28.9142C27.9798 140.285 28.0113 153.391 28.925 165.681H12.1458C11.6823 159.484 11.4345 153.169 11.4345 146.757ZM13.87 181.501H30.6494C32.1149 191.911 34.2164 201.89 36.9106 211.298H20.1206C17.4372 201.89 15.325 191.911 13.87 181.501ZM36.1453 250.17C32.1149 243.154 28.4833 235.416 25.3364 227.108H42.1264C45.2733 235.416 48.8942 243.154 52.9247 250.17H36.1453ZM73.8537 280.851C65.0468 280.851 56.6844 277.071 50.7998 270.518C49.4926 269.063 48.2023 267.548 46.9113 265.979H63.6906C68.3462 271.766 73.368 276.766 78.681 280.851H73.8537ZM63.7014 27.5129H46.922C48.3553 25.7727 49.7888 24.0991 51.246 22.4991C57.0207 16.1584 65.2764 12.6519 73.8526 12.6519H78.6917C73.3788 16.7362 68.3677 21.7258 63.7014 27.5129ZM102.842 146.757C102.842 140.399 103.047 134.137 103.424 127.995H119.578C118.825 140.286 118.812 153.391 119.6 165.681H103.435C103.058 159.484 102.842 153.169 102.842 146.757ZM110.106 211.298C107.853 201.89 106.097 191.911 104.879 181.501H121.044C122.251 191.911 124.018 201.89 126.26 211.298H110.106ZM121.012 112.185H104.847C106.065 101.602 107.864 91.4616 110.149 81.9135H126.314C124.018 91.4616 122.23 101.602 121.012 112.185Z" fill="#C01616"/>
<path d="M144.568 64.2619C142.231 57.8392 139.623 51.791 136.785 46.1535C137.056 46.6938 137.328 47.2332 137.593 47.7838C135.061 53.4954 132.755 59.6166 130.686 66.1041H114.521C117.139 57.9031 120.135 50.2732 123.476 43.333H135.329C121.123 16.5754 101.446 0 79.6928 0H78.4312V0.0024995C35.1144 0.0067091 0 65.7073 0 146.753C0 227.798 35.1144 293.498 78.4312 293.503L79.6928 293.503C101.446 293.503 121.124 276.927 135.33 250.17H123.476C120.103 243.154 117.075 235.416 114.445 227.108H130.61C132.69 233.702 135.017 239.93 137.592 245.727C140.119 240.556 142.454 235.053 144.568 229.243C136.013 205.735 131.011 177.34 131.011 146.757C131.011 116.17 136.013 87.7714 144.568 64.2619ZM36.1561 43.333H52.9355C48.9482 50.2732 45.3486 57.9031 42.2127 66.1041H25.4334C28.5586 57.9031 32.158 50.2732 36.1561 43.333ZM20.1745 81.9135H36.9644C34.2272 91.4616 32.0826 101.602 30.617 112.185H13.8269C15.2926 101.602 17.448 91.4616 20.1745 81.9135ZM11.4345 146.757C11.4345 140.399 11.6715 134.137 12.1242 127.995H28.9142C27.9798 140.285 28.0113 153.391 28.925 165.681H12.1458C11.6823 159.484 11.4345 153.169 11.4345 146.757ZM13.87 181.501H30.6494C32.1149 191.911 34.2164 201.89 36.9106 211.298H20.1206C17.4372 201.89 15.325 191.911 13.87 181.501ZM36.1453 250.17C32.1149 243.154 28.4833 235.416 25.3364 227.108H42.1264C45.2733 235.416 48.8942 243.154 52.9247 250.17H36.1453ZM73.8537 280.851C65.0468 280.851 56.6844 277.071 50.7998 270.518C49.4926 269.063 48.2023 267.548 46.9113 265.979H63.6906C68.3462 271.766 73.368 276.766 78.681 280.851H73.8537ZM63.7014 27.5129H46.922C48.3553 25.7727 49.7888 24.0991 51.246 22.4991C57.0207 16.1584 65.2764 12.6519 73.8526 12.6519H78.6917C73.3788 16.7362 68.3677 21.7258 63.7014 27.5129ZM102.842 146.757C102.842 140.399 103.047 134.137 103.424 127.995H119.578C118.825 140.286 118.812 153.391 119.6 165.681H103.435C103.058 159.484 102.842 153.169 102.842 146.757ZM110.106 211.298C107.853 201.89 106.097 191.911 104.879 181.501H121.044C122.251 191.911 124.018 201.89 126.26 211.298H110.106ZM121.012 112.185H104.847C106.065 101.602 107.864 91.4616 110.149 81.9135H126.314C124.018 91.4616 122.23 101.602 121.012 112.185Z" fill="url(#paint0_linear_1_2)"/>
<path d="M236.569 0.0024995V0H79.6928C123.015 0 158.125 65.7054 158.125 146.757C158.125 227.797 123.015 293.503 79.6928 293.503H236.569C279.886 293.498 315 227.798 315 146.753C315 65.7072 279.886 0.0067091 236.569 0.0024995ZM301.173 112.185H284.383C282.917 101.602 280.773 91.4616 278.036 81.9135H294.826C297.552 91.4616 299.707 101.602 301.173 112.185ZM278.844 43.333C282.842 50.2732 286.441 57.9031 289.567 66.1041H272.787C269.651 57.9031 266.052 50.2732 262.065 43.333H278.844ZM241.147 12.6519C249.724 12.6519 257.979 16.1584 263.754 22.4991C265.211 24.0991 266.645 25.7727 268.078 27.5129H251.299C246.632 21.7258 241.621 16.7362 236.308 12.6519H241.147ZM184.289 112.185H168.124C166.906 101.602 165.118 91.4616 162.822 81.9135H178.987C181.272 91.4616 183.071 101.602 184.289 112.185ZM128.003 12.6519H144.049C148.812 16.7611 152.699 21.7314 156.679 27.5129H140.525C136.624 21.7258 132.432 16.7362 128.003 12.6519ZM149.502 43.333H165.656C168.997 50.2732 171.993 57.9031 174.612 66.1041H158.447C155.828 57.9031 152.832 50.2732 149.502 43.333ZM144.071 280.851H128.024C132.453 276.766 136.646 271.766 140.525 265.979H156.679C152.719 271.767 148.824 276.725 144.071 280.851ZM165.656 250.17H149.502C152.875 243.154 155.904 235.416 158.522 227.108H174.687C172.058 235.416 169.029 243.154 165.656 250.17ZM179.03 211.298H162.876C165.118 201.89 166.885 191.911 168.092 181.501H184.257C183.039 191.911 181.283 201.89 179.03 211.298ZM185.701 165.681H169.536C170.324 153.391 170.311 140.286 169.557 127.995H185.712C186.089 134.137 186.294 140.399 186.294 146.757C186.294 153.169 186.078 159.484 185.701 165.681ZM204.253 176.78C205.329 167.089 205.894 157.045 205.894 146.757C205.894 136.461 205.329 126.42 204.253 116.728C203.613 110.964 209.879 106.967 214.871 109.919L266.885 140.671C271.506 143.403 271.507 150.089 266.886 152.822L214.866 183.585C209.876 186.536 203.613 182.541 204.253 176.78ZM264.2 270.518C258.316 277.071 249.953 280.851 241.146 280.851H236.319C241.632 276.766 246.654 271.766 251.309 265.979H268.089C266.798 267.548 265.507 269.063 264.2 270.518ZM278.855 250.17H262.075C266.106 243.154 269.727 235.416 272.874 227.108H289.664C286.517 235.416 282.885 243.154 278.855 250.17ZM294.879 211.298H278.089C280.784 201.89 282.885 191.911 284.351 181.501H301.13C299.675 191.911 297.563 201.89 294.879 211.298ZM286.075 165.681C286.989 153.391 287.02 140.285 286.086 127.995H302.876C303.328 134.137 303.566 140.399 303.566 146.757C303.566 153.169 303.318 159.484 302.854 165.681H286.075Z" fill="#DB3131"/>
</g>
<defs>
<linearGradient id="paint0_linear_1_2" x1="0" y1="146.751" x2="144.568" y2="146.751" gradientUnits="userSpaceOnUse">
<stop stop-opacity="0"/>
<stop offset="1" stop-opacity="0.6"/>
</linearGradient>
<clipPath id="clip0_1_2">
<rect width="315" height="293.503" fill="white"/>
</clipPath>
</defs>
</svg>
