<svg width="1063" height="294" viewBox="0 0 1063 294" fill="none" xmlns="http://www.w3.org/2000/svg">
<g clip-path="url(#clip0_1_11)">
<g clip-path="url(#clip1_1_11)">
<path d="M127.771 131.986C127.771 67.9806 153.342 31.6522 172.42 11H52.2728C36.8485 24.3345 3.8569 70.5468 6.00002 148.573C9.50002 276 54.0757 272.214 69.5 287.5C105.189 287.5 152.118 288.876 179.804 290.106C183.93 291.349 188.362 292 193.121 292C211.991 292 202.185 291.101 179.804 290.106C138.186 277.568 127.771 204.777 127.771 131.986Z" fill="white"/>
<path d="M172.42 11C153.342 31.6522 127.771 67.9806 127.771 131.986C127.771 211.993 140.354 292 193.121 292C235.335 292 134.038 287.5 69.5 287.5C54.0757 272.214 9.50002 276 6.00002 148.573C3.8569 70.5468 36.8485 24.3345 52.2728 11H172.42Z" stroke="black"/>
<path d="M160.5 128C160.5 62.4 129 25.1667 105.5 4H253.5C272.5 17.6667 310.5 65 310.5 145C310.5 225 272.5 269.833 253.5 285.5C206.789 285.5 137.119 287.744 98.1447 289.595C92.5741 291.171 86.5374 292 80 292C58.5535 292 70.7871 290.894 98.1447 289.595C147.961 275.506 160.5 201.753 160.5 128Z" fill="white"/>
<path d="M105.5 4C129 25.1667 160.5 62.4 160.5 128C160.5 210 145 292 80 292C28 292 174 285.5 253.5 285.5C272.5 269.833 310.5 225 310.5 145C310.5 65 272.5 17.6667 253.5 4H105.5Z" stroke="black"/>
<path d="M144.568 64.2619C142.231 57.8392 139.623 51.791 136.785 46.1535C137.056 46.6938 137.328 47.2332 137.593 47.7838C135.061 53.4954 132.755 59.6166 130.686 66.1041H114.521C117.139 57.9031 120.135 50.2732 123.476 43.333H135.329C121.123 16.5754 101.446 0 79.6928 0H78.4312V0.0024995C35.1144 0.0067091 0 65.7073 0 146.753C0 227.798 35.1144 293.498 78.4312 293.503L79.6928 293.503C101.446 293.503 121.124 276.927 135.33 250.17H123.476C120.103 243.154 117.075 235.416 114.445 227.108H130.61C132.69 233.702 135.017 239.93 137.592 245.727C140.119 240.556 142.454 235.053 144.568 229.243C136.013 205.735 131.011 177.34 131.011 146.757C131.011 116.17 136.013 87.7714 144.568 64.2619ZM36.1561 43.333H52.9355C48.9482 50.2732 45.3486 57.9031 42.2127 66.1041H25.4334C28.5586 57.9031 32.158 50.2732 36.1561 43.333ZM20.1745 81.9135H36.9644C34.2272 91.4616 32.0826 101.602 30.617 112.185H13.8269C15.2926 101.602 17.448 91.4616 20.1745 81.9135ZM11.4345 146.757C11.4345 140.399 11.6715 134.137 12.1242 127.995H28.9142C27.9798 140.285 28.0113 153.391 28.925 165.681H12.1458C11.6823 159.484 11.4345 153.169 11.4345 146.757ZM13.87 181.501H30.6494C32.1149 191.911 34.2164 201.89 36.9106 211.298H20.1206C17.4372 201.89 15.325 191.911 13.87 181.501ZM36.1453 250.17C32.1149 243.154 28.4833 235.416 25.3364 227.108H42.1264C45.2733 235.416 48.8942 243.154 52.9247 250.17H36.1453ZM73.8537 280.851C65.0468 280.851 56.6844 277.071 50.7998 270.518C49.4926 269.063 48.2023 267.548 46.9113 265.979H63.6906C68.3462 271.766 73.368 276.766 78.681 280.851H73.8537ZM63.7014 27.5129H46.922C48.3553 25.7727 49.7888 24.0991 51.246 22.4991C57.0207 16.1584 65.2764 12.6519 73.8526 12.6519H78.6917C73.3788 16.7362 68.3677 21.7258 63.7014 27.5129ZM102.842 146.757C102.842 140.399 103.047 134.137 103.424 127.995H119.578C118.825 140.286 118.812 153.391 119.6 165.681H103.435C103.058 159.484 102.842 153.169 102.842 146.757ZM110.106 211.298C107.853 201.89 106.097 191.911 104.879 181.501H121.044C122.251 191.911 124.018 201.89 126.26 211.298H110.106ZM121.012 112.185H104.847C106.065 101.602 107.864 91.4616 110.149 81.9135H126.314C124.018 91.4616 122.23 101.602 121.012 112.185Z" fill="#C01616"/>
<path d="M144.568 64.2619C142.231 57.8392 139.623 51.791 136.785 46.1535C137.056 46.6938 137.328 47.2332 137.593 47.7838C135.061 53.4954 132.755 59.6166 130.686 66.1041H114.521C117.139 57.9031 120.135 50.2732 123.476 43.333H135.329C121.123 16.5754 101.446 0 79.6928 0H78.4312V0.0024995C35.1144 0.0067091 0 65.7073 0 146.753C0 227.798 35.1144 293.498 78.4312 293.503L79.6928 293.503C101.446 293.503 121.124 276.927 135.33 250.17H123.476C120.103 243.154 117.075 235.416 114.445 227.108H130.61C132.69 233.702 135.017 239.93 137.592 245.727C140.119 240.556 142.454 235.053 144.568 229.243C136.013 205.735 131.011 177.34 131.011 146.757C131.011 116.17 136.013 87.7714 144.568 64.2619ZM36.1561 43.333H52.9355C48.9482 50.2732 45.3486 57.9031 42.2127 66.1041H25.4334C28.5586 57.9031 32.158 50.2732 36.1561 43.333ZM20.1745 81.9135H36.9644C34.2272 91.4616 32.0826 101.602 30.617 112.185H13.8269C15.2926 101.602 17.448 91.4616 20.1745 81.9135ZM11.4345 146.757C11.4345 140.399 11.6715 134.137 12.1242 127.995H28.9142C27.9798 140.285 28.0113 153.391 28.925 165.681H12.1458C11.6823 159.484 11.4345 153.169 11.4345 146.757ZM13.87 181.501H30.6494C32.1149 191.911 34.2164 201.89 36.9106 211.298H20.1206C17.4372 201.89 15.325 191.911 13.87 181.501ZM36.1453 250.17C32.1149 243.154 28.4833 235.416 25.3364 227.108H42.1264C45.2733 235.416 48.8942 243.154 52.9247 250.17H36.1453ZM73.8537 280.851C65.0468 280.851 56.6844 277.071 50.7998 270.518C49.4926 269.063 48.2023 267.548 46.9113 265.979H63.6906C68.3462 271.766 73.368 276.766 78.681 280.851H73.8537ZM63.7014 27.5129H46.922C48.3553 25.7727 49.7888 24.0991 51.246 22.4991C57.0207 16.1584 65.2764 12.6519 73.8526 12.6519H78.6917C73.3788 16.7362 68.3677 21.7258 63.7014 27.5129ZM102.842 146.757C102.842 140.399 103.047 134.137 103.424 127.995H119.578C118.825 140.286 118.812 153.391 119.6 165.681H103.435C103.058 159.484 102.842 153.169 102.842 146.757ZM110.106 211.298C107.853 201.89 106.097 191.911 104.879 181.501H121.044C122.251 191.911 124.018 201.89 126.26 211.298H110.106ZM121.012 112.185H104.847C106.065 101.602 107.864 91.4616 110.149 81.9135H126.314C124.018 91.4616 122.23 101.602 121.012 112.185Z" fill="url(#paint0_linear_1_11)"/>
<path d="M236.569 0.0024995V0H79.6928C123.015 0 158.125 65.7054 158.125 146.757C158.125 227.797 123.015 293.503 79.6928 293.503H236.569C279.886 293.498 315 227.798 315 146.753C315 65.7072 279.886 0.0067091 236.569 0.0024995ZM301.173 112.185H284.383C282.917 101.602 280.773 91.4616 278.036 81.9135H294.826C297.552 91.4616 299.707 101.602 301.173 112.185ZM278.844 43.333C282.842 50.2732 286.441 57.9031 289.567 66.1041H272.787C269.651 57.9031 266.052 50.2732 262.065 43.333H278.844ZM241.147 12.6519C249.724 12.6519 257.979 16.1584 263.754 22.4991C265.211 24.0991 266.645 25.7727 268.078 27.5129H251.299C246.632 21.7258 241.621 16.7362 236.308 12.6519H241.147ZM184.289 112.185H168.124C166.906 101.602 165.118 91.4616 162.822 81.9135H178.987C181.272 91.4616 183.071 101.602 184.289 112.185ZM128.003 12.6519H144.049C148.812 16.7611 152.699 21.7314 156.679 27.5129H140.525C136.624 21.7258 132.432 16.7362 128.003 12.6519ZM149.502 43.333H165.656C168.997 50.2732 171.993 57.9031 174.612 66.1041H158.447C155.828 57.9031 152.832 50.2732 149.502 43.333ZM144.071 280.851H128.024C132.453 276.766 136.646 271.766 140.525 265.979H156.679C152.719 271.767 148.824 276.725 144.071 280.851ZM165.656 250.17H149.502C152.875 243.154 155.904 235.416 158.522 227.108H174.687C172.058 235.416 169.029 243.154 165.656 250.17ZM179.03 211.298H162.876C165.118 201.89 166.885 191.911 168.092 181.501H184.257C183.039 191.911 181.283 201.89 179.03 211.298ZM185.701 165.681H169.536C170.324 153.391 170.311 140.286 169.557 127.995H185.712C186.089 134.137 186.294 140.399 186.294 146.757C186.294 153.169 186.078 159.484 185.701 165.681ZM204.253 176.78C205.329 167.089 205.894 157.045 205.894 146.757C205.894 136.461 205.329 126.42 204.253 116.728C203.613 110.964 209.879 106.967 214.871 109.919L266.885 140.671C271.506 143.403 271.507 150.089 266.886 152.822L214.866 183.585C209.876 186.536 203.613 182.541 204.253 176.78ZM264.2 270.518C258.316 277.071 249.953 280.851 241.146 280.851H236.319C241.632 276.766 246.654 271.766 251.309 265.979H268.089C266.798 267.548 265.507 269.063 264.2 270.518ZM278.855 250.17H262.075C266.106 243.154 269.727 235.416 272.874 227.108H289.664C286.517 235.416 282.885 243.154 278.855 250.17ZM294.879 211.298H278.089C280.784 201.89 282.885 191.911 284.351 181.501H301.13C299.675 191.911 297.563 201.89 294.879 211.298ZM286.075 165.681C286.989 153.391 287.02 140.285 286.086 127.995H302.876C303.328 134.137 303.566 140.399 303.566 146.757C303.566 153.169 303.318 159.484 302.854 165.681H286.075Z" fill="#DB3131"/>
</g>
<path d="M369.004 146.751L392.258 36.7953H422.596L427.524 119.031H428.14L469.412 36.7953H501.29L478.036 146.751H456.938L467.872 94.6993C468.591 91.2087 469.412 87.5127 470.336 83.6113C471.363 79.6073 472.338 75.706 473.262 71.9073C474.289 68.006 475.213 64.5667 476.034 61.5893H475.418L432.606 146.751H411.508L406.888 61.5893H406.272C406.067 63.7453 405.656 66.7227 405.04 70.5213C404.424 74.2173 403.705 78.2727 402.884 82.6873C402.165 87.102 401.344 91.414 400.42 95.6233L389.64 146.751H369.004ZM539.464 148.291C533.201 148.291 527.606 147.008 522.678 144.441C517.853 141.772 514.054 138.025 511.282 133.199C508.613 128.374 507.278 122.625 507.278 115.951C507.278 109.997 507.843 104.299 508.972 98.8573C510.204 93.416 512.001 88.4367 514.362 83.9193C516.723 79.2993 519.701 75.2953 523.294 71.9073C526.887 68.5193 531.045 65.9013 535.768 64.0533C540.593 62.1027 545.983 61.1273 551.938 61.1273C558.509 61.1273 564.155 62.462 568.878 65.1313C573.601 67.698 577.245 71.4967 579.812 76.5273C582.481 81.4553 583.816 87.41 583.816 94.3913C583.816 100.038 583.251 105.531 582.122 110.869C580.993 116.208 579.247 121.136 576.886 125.653C574.627 130.171 571.753 134.123 568.262 137.511C564.771 140.899 560.613 143.569 555.788 145.519C550.963 147.367 545.521 148.291 539.464 148.291ZM541.312 129.811C543.776 129.811 546.035 129.195 548.088 127.963C550.141 126.629 551.989 124.832 553.632 122.573C555.275 120.315 556.609 117.697 557.636 114.719C558.765 111.742 559.587 108.508 560.1 105.017C560.716 101.527 561.024 97.9847 561.024 94.3913C561.024 91.5167 560.665 89.0013 559.946 86.8453C559.33 84.5867 558.201 82.8413 556.558 81.6093C555.018 80.2747 552.913 79.6073 550.244 79.6073C547.472 79.6073 545.008 80.3773 542.852 81.9173C540.696 83.4573 538.797 85.5107 537.154 88.0773C535.614 90.5413 534.279 93.3647 533.15 96.5473C532.123 99.73 531.353 103.015 530.84 106.403C530.327 109.689 530.07 112.871 530.07 115.951C530.07 120.469 530.994 123.908 532.842 126.269C534.69 128.631 537.513 129.811 541.312 129.811ZM605.596 146.751L595.278 62.6673H617.454L620.842 106.711C620.945 107.943 620.996 109.586 620.996 111.639C621.099 113.693 621.15 115.849 621.15 118.107C621.253 120.263 621.304 122.265 621.304 124.113H622.074C622.69 122.368 623.357 120.469 624.076 118.415C624.897 116.259 625.719 114.206 626.54 112.255C627.361 110.202 628.08 108.559 628.696 107.327L651.026 62.6673H675.358L629.928 146.751H605.596ZM669.155 146.751L687.019 62.6673H709.657L691.793 146.751H669.155ZM701.957 52.1953C698.774 52.1953 696.053 51.528 693.795 50.1933C691.639 48.756 690.561 46.3433 690.561 42.9553C690.561 40.0807 691.074 37.668 692.101 35.7173C693.23 33.7667 694.821 32.278 696.875 31.2513C698.928 30.2247 701.392 29.7113 704.267 29.7113C707.244 29.7113 709.862 30.3787 712.121 31.7133C714.379 33.048 715.509 35.4093 715.509 38.7973C715.509 42.8013 714.379 46.0353 712.121 48.4993C709.965 50.9633 706.577 52.1953 701.957 52.1953ZM752.142 148.291C745.571 148.291 739.77 147.111 734.74 144.749C729.812 142.388 725.91 138.795 723.036 133.969C720.264 129.144 718.878 123.087 718.878 115.797C718.878 108.713 719.853 101.937 721.804 95.4693C723.857 88.8987 726.834 83.0467 730.736 77.9133C734.74 72.78 739.668 68.7247 745.52 65.7473C751.372 62.6673 758.148 61.1273 765.848 61.1273C775.293 61.1273 782.326 63.2833 786.946 67.5953C791.668 71.9073 794.03 77.4 794.03 84.0733C794.03 88.488 793.003 92.492 790.95 96.0853C788.999 99.6787 786.022 102.759 782.018 105.325C778.116 107.892 773.137 109.894 767.08 111.331C761.022 112.666 753.887 113.333 745.674 113.333H741.824C741.721 113.949 741.67 114.514 741.67 115.027C741.67 115.438 741.67 115.9 741.67 116.413C741.67 120.931 742.953 124.524 745.52 127.193C748.189 129.863 751.885 131.197 756.608 131.197C761.022 131.197 765.026 130.684 768.62 129.657C772.213 128.631 776.474 126.988 781.402 124.729V141.823C776.987 143.979 772.521 145.622 768.004 146.751C763.486 147.778 758.199 148.291 752.142 148.291ZM747.676 98.0873C753.528 98.0873 758.25 97.4713 761.844 96.2393C765.437 95.0073 768.055 93.3647 769.698 91.3113C771.443 89.1553 772.316 86.8967 772.316 84.5353C772.316 82.174 771.597 80.4287 770.16 79.2993C768.825 78.0673 766.926 77.4513 764.462 77.4513C761.69 77.4513 758.918 78.324 756.146 80.0693C753.374 81.8147 750.91 84.2273 748.754 87.3073C746.7 90.3873 745.212 93.9807 744.288 98.0873H747.676ZM801.828 146.751L825.082 36.7953H855.42L860.348 119.031H860.964L902.236 36.7953H934.114L910.86 146.751H889.762L900.696 94.6993C901.415 91.2087 902.236 87.5127 903.16 83.6113C904.187 79.6073 905.162 75.706 906.086 71.9073C907.113 68.006 908.037 64.5667 908.858 61.5893H908.242L865.43 146.751H844.332L839.712 61.5893H839.096C838.891 63.7453 838.48 66.7227 837.864 70.5213C837.248 74.2173 836.53 78.2727 835.708 82.6873C834.99 87.102 834.168 91.414 833.244 95.6233L822.464 146.751H801.828ZM936.098 146.751L953.962 62.6673H976.6L958.736 146.751H936.098ZM968.9 52.1953C965.718 52.1953 962.997 51.528 960.738 50.1933C958.582 48.756 957.504 46.3433 957.504 42.9553C957.504 40.0807 958.018 37.668 959.044 35.7173C960.174 33.7667 961.765 32.278 963.818 31.2513C965.872 30.2247 968.336 29.7113 971.21 29.7113C974.188 29.7113 976.806 30.3787 979.064 31.7133C981.323 33.048 982.452 35.4093 982.452 38.7973C982.452 42.8013 981.323 46.0353 979.064 48.4993C976.908 50.9633 973.52 52.1953 968.9 52.1953ZM971.499 146.751L1007.53 103.631L990.595 62.6673H1014.77L1023.4 87.7693L1041.72 62.6673H1068.36L1033.25 104.863L1051.58 146.751H1027.09L1017.7 121.033L997.833 146.751H971.499Z" fill="white"/>
<path d="M375.688 227.559H399.944V230.439H375.688V227.559ZM376.072 248.807H403.72V251.751H372.808V206.951H402.76V209.895H376.072V248.807ZM418.821 251.751V206.951H421.573L453.509 247.719H452.037V206.951H455.301V251.751H452.613L420.613 210.983H422.085V251.751H418.821ZM478.178 252.071C475.746 252.071 473.463 251.517 471.33 250.407C469.239 249.255 467.554 247.677 466.274 245.671L468.258 243.495C469.495 245.33 470.946 246.738 472.61 247.719C474.316 248.658 476.172 249.127 478.178 249.127C484.108 249.127 487.074 245.607 487.074 238.567V209.895H470.562V206.951H490.338V238.567C490.338 243.047 489.314 246.418 487.266 248.679C485.218 250.941 482.188 252.071 478.178 252.071ZM527.791 252.071C524.463 252.071 521.37 251.517 518.511 250.407C515.695 249.255 513.22 247.655 511.087 245.607C508.996 243.517 507.375 241.106 506.223 238.375C505.071 235.602 504.495 232.594 504.495 229.351C504.495 226.109 505.071 223.122 506.223 220.391C507.375 217.618 508.996 215.207 511.087 213.159C513.22 211.069 515.695 209.469 518.511 208.359C521.37 207.207 524.463 206.631 527.791 206.631C531.119 206.631 534.191 207.207 537.007 208.359C539.866 209.469 542.34 211.047 544.431 213.095C546.522 215.143 548.143 217.554 549.295 220.327C550.49 223.058 551.087 226.066 551.087 229.351C551.087 232.637 550.49 235.666 549.295 238.439C548.143 241.17 546.522 243.559 544.431 245.607C542.34 247.655 539.866 249.255 537.007 250.407C534.191 251.517 531.119 252.071 527.791 252.071ZM527.791 249.063C530.65 249.063 533.295 248.573 535.727 247.591C538.159 246.61 540.271 245.223 542.063 243.431C543.855 241.639 545.242 239.549 546.223 237.159C547.247 234.77 547.759 232.167 547.759 229.351C547.759 226.493 547.247 223.89 546.223 221.543C545.242 219.154 543.855 217.063 542.063 215.271C540.271 213.479 538.159 212.093 535.727 211.111C533.295 210.13 530.65 209.639 527.791 209.639C524.932 209.639 522.287 210.13 519.855 211.111C517.423 212.093 515.29 213.479 513.455 215.271C511.663 217.063 510.255 219.154 509.231 221.543C508.25 223.89 507.759 226.493 507.759 229.351C507.759 232.167 508.25 234.77 509.231 237.159C510.255 239.549 511.663 241.639 513.455 243.431C515.29 245.223 517.423 246.61 519.855 247.591C522.287 248.573 524.932 249.063 527.791 249.063ZM574.231 251.751V235.495L574.999 237.607L556.183 206.951H559.767L576.855 234.791H575.063L592.151 206.951H595.543L576.727 237.607L577.495 235.495V251.751H574.231ZM636.492 251.751L621.26 206.951H624.716L639.18 249.767H637.452L652.364 206.951H655.5L670.284 249.767H668.62L683.212 206.951H686.412L671.244 251.751H667.788L653.452 210.343H654.284L639.948 251.751H636.492ZM732.236 206.951H735.5V251.751H732.236V206.951ZM702.284 251.751H699.02V206.951H702.284V251.751ZM732.62 230.439H701.9V227.559H732.62V230.439ZM746.858 251.751L767.466 206.951H770.73L791.338 251.751H787.818L768.362 208.999H769.77L750.378 251.751H746.858ZM754.41 239.143L755.498 236.391H782.314L783.402 239.143H754.41ZM808.996 251.751V209.895H792.868V206.951H828.388V209.895H812.26V251.751H808.996ZM858.002 252.071C854.674 252.071 851.581 251.517 848.722 250.407C845.906 249.255 843.453 247.655 841.362 245.607C839.271 243.559 837.65 241.17 836.498 238.439C835.346 235.666 834.77 232.637 834.77 229.351C834.77 226.066 835.346 223.058 836.498 220.327C837.65 217.554 839.271 215.143 841.362 213.095C843.495 211.047 845.97 209.469 848.786 208.359C851.602 207.207 854.674 206.631 858.002 206.631C861.159 206.631 864.103 207.143 866.834 208.167C869.607 209.191 871.975 210.749 873.938 212.839L871.89 214.951C869.97 213.074 867.837 211.73 865.49 210.919C863.186 210.066 860.733 209.639 858.13 209.639C855.271 209.639 852.605 210.13 850.13 211.111C847.698 212.093 845.565 213.479 843.73 215.271C841.938 217.063 840.53 219.154 839.506 221.543C838.525 223.933 838.034 226.535 838.034 229.351C838.034 232.167 838.525 234.77 839.506 237.159C840.53 239.549 841.938 241.639 843.73 243.431C845.565 245.223 847.698 246.61 850.13 247.591C852.605 248.573 855.271 249.063 858.13 249.063C860.733 249.063 863.186 248.658 865.49 247.847C867.837 246.994 869.97 245.607 871.89 243.687L873.938 245.799C871.975 247.89 869.607 249.469 866.834 250.535C864.103 251.559 861.159 252.071 858.002 252.071ZM921.287 206.951H924.551V251.751H921.287V206.951ZM891.335 251.751H888.071V206.951H891.335V251.751ZM921.671 230.439H890.951V227.559H921.671V230.439ZM943.396 251.751V206.951H946.66V251.751H943.396ZM965.47 251.751V206.951H968.222L1000.16 247.719H998.686V206.951H1001.95V251.751H999.262L967.262 210.983H968.734V251.751H965.47ZM1039.93 252.071C1036.56 252.071 1033.45 251.517 1030.59 250.407C1027.73 249.255 1025.23 247.655 1023.1 245.607C1021.01 243.559 1019.39 241.17 1018.24 238.439C1017.08 235.666 1016.51 232.637 1016.51 229.351C1016.51 226.066 1017.08 223.058 1018.24 220.327C1019.39 217.554 1021.03 215.143 1023.16 213.095C1025.3 211.047 1027.77 209.469 1030.59 208.359C1033.45 207.207 1036.58 206.631 1040 206.631C1043.24 206.631 1046.25 207.143 1049.02 208.167C1051.79 209.191 1054.16 210.727 1056.12 212.775L1054.08 214.951C1052.11 213.031 1049.96 211.666 1047.61 210.855C1045.31 210.045 1042.79 209.639 1040.06 209.639C1037.16 209.639 1034.47 210.13 1032 211.111C1029.52 212.093 1027.37 213.479 1025.53 215.271C1023.7 217.063 1022.27 219.154 1021.24 221.543C1020.26 223.933 1019.77 226.535 1019.77 229.351C1019.77 232.167 1020.26 234.77 1021.24 237.159C1022.27 239.549 1023.7 241.639 1025.53 243.431C1027.37 245.223 1029.52 246.61 1032 247.591C1034.47 248.573 1037.16 249.063 1040.06 249.063C1042.7 249.063 1045.2 248.658 1047.55 247.847C1049.94 247.037 1052.11 245.693 1054.08 243.815L1055.93 246.311C1053.93 248.231 1051.52 249.682 1048.7 250.663C1045.93 251.602 1043 252.071 1039.93 252.071ZM1052.8 245.991V229.543H1055.93V246.311L1052.8 245.991Z" fill="white"/>
</g>
<defs>
<linearGradient id="paint0_linear_1_11" x1="0" y1="146.751" x2="144.568" y2="146.751" gradientUnits="userSpaceOnUse">
<stop stop-opacity="0"/>
<stop offset="1" stop-opacity="0.6"/>
</linearGradient>
<clipPath id="clip0_1_11">
<rect width="1063" height="293.503" fill="white"/>
</clipPath>
<clipPath id="clip1_1_11">
<rect width="315" height="293.503" fill="white"/>
</clipPath>
</defs>
</svg>
